<?xml version="1.0" encoding="utf-8"?>
<!-- Generator: Adobe Illustrator 19.1.0, SVG Export Plug-In . SVG Version: 6.00 Build 0)  -->
<svg version="1.1" id="Layer_1" xmlns="http://www.w3.org/2000/svg" xmlns:xlink="http://www.w3.org/1999/xlink" x="0px" y="0px"
	 width="1000px" height="1000px" viewBox="0 0 1000 1000" style="enable-background:new 0 0 1000 1000;" xml:space="preserve">
<path style="fill:#fff;" d="M951.7,347.7c1.4-1.8,4.5-3.7,6.4-8c-2.4,61-15.5,120.6-46.4,173.3c8.4-4.9,20.8-9.5,29.1-16
	c-25,61.7-154.2,187.1-232.3,91.8c0,0-11.6-25.5-1.2-49.3c2.4,7.8,6.3,13.9,8.8,21.7c19-95.9-38.5-195,57.7-272.4
	c-5.6,16-9.6,31.8-10.9,49.7c10.9-19,70.4-107,98.9-89.8c-7.5,5.7-12.8,8.6-13.5,25.7c7.7-11.3,80.3-28.8,110,14.2
	c-6.6-0.9-14-2.6-20.6-3.5c-6.2,2.3,6,48.7,8,60.7C946,347.4,950.2,349.4,951.7,347.7z M271.3,137.3c7.1-1.6,15.3-0.8,23.3-1.7
	C245.7,178,248.3,249,274.5,305.3c-8-6.4-20-13.3-28.3-22.9c8.2,62.3,33.9,113.8,85.3,148c24.4,16.8,43,1.1,55.1,31.4
	c17.6-25.3,38.3-51,49.8-79.8c1.6,7.1,6.3,13.9,7.9,21c43.7-92,29.4-226.5-56.2-285.4c4.9,8.4,12.5,33.5,11.6,32.8
	C361.9,121.2,306.5,95.5,271.3,137.3z M287.1,431.1c-17.4-79.9-120.6-137-185.1-96.9c-0.5-4.8,1.5-9.1,1-13.9
	c-21.9,14.5-33.8,40-31.8,66.5c-3.5-2.9-6.4-6.6-8.3-9.6C56,427.2,70.9,492,108.6,526.9c-12.4-10-29-22-40-33.8
	c7.8,42.9,24.5,78.3,66.2,97.4c-6.6-0.9-13.9-1-20.4-1.9c9.2,3.1,18.6,7.7,28,12.4c-9.8-0.6-19.2,2-29,1.5
	c21.1,46.3,88.8,58.6,134.3,52.9c-10.7-32.1,3.3-60.3,35.2-65.2c-2,4.3-8.2,6.5-10.4,9.2c57.8-11.8,16.3-128.8-3.4-162.3
	c10.2,12.7,17.8,23.2,17.8,23.2s0.2-5.7,0.6-9.8C289.1,443,288.5,436.6,287.1,431.1z M702.9,612c-30.5-20.2-28.9-81.9-57.4-106.4
	c-48.3-43.4-104.5-1.1-154.2-26.6c-42-22.3-75.8-13-86.5-7c-4.6,2.1-7.7,4.1-12.3,6.2c-69.8,28.4-62,102.1-85.5,163.7
	c0,0,0,0-0.9-0.7c-0.5-4.8-1.9-10.3-2.4-15.1c-11.8,49-69.1,65.6-85.9,113.5c-22.9,66.4,14,124,73.8,146c3.4,1.3,7.8,4.8,11.2,6.1
	c-4.6-5.2-7-13-11.6-18.2c15.1,4.9,35,9.2,48.5,14.3c-8.7-5.6-18.6-15-25.5-19.2c59.1,15.6,163.1,133.3,223.3,60.5
	c-16.6,4.2-18.7,6.8-43.6,8.7c50.2-22.3,90.6-61.4,138-87.5c-4.9,15.1-1.8,36.6-6.8,50.1c34.5-64.4,153.6-32.5,122.5-135.2
	c2.3-1.1,6.9,4.1,9.2,3.1c0.9-6.6-5.3-11.6-6-18c4.4,3.6,8.9,7.2,14,9.8C763,706,727.5,661.2,695,621.7c10.5-0.3,17.1-6.7,14.6-7.2
	C708,614.7,705.5,614.1,702.9,612z M504.2,211.3c-9.3,4.2-13,83.1-7.5,119.8c-4.1-7.7-10.9-19.1-14.1-26
	c5.8,54.4,61,109.3,60.9,154.6c58.1-1.3,128.6-8.8,158.2-65.3c-4.5,3.7-10.7,6-15.3,8.1c28.5-37,28-79.9,21.6-124.5
	c2.1,4.6,6.9,11.4,9.2,17.6c2.5-37.5-12.1-75.6-27-109.6c0,0,18.8,2.1,22.4,4.9c-5.8-47.1-73.9-86.1-129.5-60.7
	c-32.4,14.8-86.7,90.9-69.6,129.6C504.9,248.5,504.1,225.9,504.2,211.3z"/>
</svg>
